<mxfile host="app.diagrams.net" modified="2022-01-25T18:47:23.684Z" agent="5.0 (Windows NT 10.0; Win64; x64) AppleWebKit/537.36 (KHTML, like Gecko) Chrome/97.0.4692.99 Safari/537.36" etag="kL1JTQz5cEA3ZDtr4pY0" version="16.4.7" type="github">
  <diagram name="Page-1" id="42789a77-a242-8287-6e28-9cd8cfd52e62">
    <mxGraphModel dx="2130" dy="912" grid="1" gridSize="10" guides="1" tooltips="1" connect="1" arrows="1" fold="1" page="1" pageScale="1" pageWidth="1100" pageHeight="850" background="none" math="0" shadow="0">
      <root>
        <mxCell id="0" />
        <mxCell id="1" parent="0" />
        <mxCell id="JIg0ScVijWEeHpX40dQg-22" value="" style="ellipse;whiteSpace=wrap;html=1;rotation=15;" vertex="1" parent="1">
          <mxGeometry x="260" y="140" width="500" height="340" as="geometry" />
        </mxCell>
        <mxCell id="MwhxylCimsrul33ufEP8-5" value="community center" style="ellipse;whiteSpace=wrap;html=1;rounded=0;shadow=1;comic=0;labelBackgroundColor=none;strokeWidth=1;fontFamily=Verdana;fontSize=12;align=center;" parent="1" vertex="1">
          <mxGeometry x="520" y="190" width="90" height="60" as="geometry" />
        </mxCell>
        <mxCell id="MwhxylCimsrul33ufEP8-10" value="communal garden" style="ellipse;whiteSpace=wrap;html=1;rounded=0;shadow=1;comic=0;labelBackgroundColor=none;strokeWidth=1;fontFamily=Verdana;fontSize=12;align=center;" parent="1" vertex="1">
          <mxGeometry x="600" y="250" width="90" height="60" as="geometry" />
        </mxCell>
        <mxCell id="MwhxylCimsrul33ufEP8-11" value="restaurant" style="ellipse;whiteSpace=wrap;html=1;rounded=0;shadow=1;comic=0;labelBackgroundColor=none;strokeWidth=1;fontFamily=Verdana;fontSize=12;align=center;" parent="1" vertex="1">
          <mxGeometry x="450" y="260" width="90" height="60" as="geometry" />
        </mxCell>
        <mxCell id="MwhxylCimsrul33ufEP8-12" value="Gym" style="ellipse;whiteSpace=wrap;html=1;rounded=0;shadow=1;comic=0;labelBackgroundColor=none;strokeWidth=1;fontFamily=Verdana;fontSize=12;align=center;" parent="1" vertex="1">
          <mxGeometry x="630" y="320" width="90" height="60" as="geometry" />
        </mxCell>
        <mxCell id="MwhxylCimsrul33ufEP8-13" value="shops" style="ellipse;whiteSpace=wrap;html=1;rounded=0;shadow=1;comic=0;labelBackgroundColor=none;strokeWidth=1;fontFamily=Verdana;fontSize=12;align=center;" parent="1" vertex="1">
          <mxGeometry x="400" y="330" width="90" height="60" as="geometry" />
        </mxCell>
        <mxCell id="MwhxylCimsrul33ufEP8-14" value="lobby" style="ellipse;whiteSpace=wrap;html=1;rounded=0;shadow=1;comic=0;labelBackgroundColor=none;strokeWidth=1;fontFamily=Verdana;fontSize=12;align=center;" parent="1" vertex="1">
          <mxGeometry x="350" y="230" width="90" height="60" as="geometry" />
        </mxCell>
        <mxCell id="MwhxylCimsrul33ufEP8-15" value="assisted living" style="ellipse;whiteSpace=wrap;html=1;rounded=0;shadow=1;comic=0;labelBackgroundColor=none;strokeWidth=1;fontFamily=Verdana;fontSize=12;align=center;" parent="1" vertex="1">
          <mxGeometry x="520" y="340" width="90" height="60" as="geometry" />
        </mxCell>
        <mxCell id="MwhxylCimsrul33ufEP8-16" value="startups" style="ellipse;whiteSpace=wrap;html=1;" parent="1" vertex="1">
          <mxGeometry x="400" y="170" width="80" height="53.33" as="geometry" />
        </mxCell>
        <mxCell id="JIg0ScVijWEeHpX40dQg-4" value="" style="endArrow=none;html=1;rounded=0;exitX=1;exitY=0.5;exitDx=0;exitDy=0;entryX=0;entryY=0.5;entryDx=0;entryDy=0;" edge="1" parent="1" target="MwhxylCimsrul33ufEP8-14">
          <mxGeometry width="50" height="50" relative="1" as="geometry">
            <mxPoint x="160" y="280" as="sourcePoint" />
            <mxPoint x="570" y="260" as="targetPoint" />
          </mxGeometry>
        </mxCell>
        <mxCell id="JIg0ScVijWEeHpX40dQg-5" value="" style="endArrow=none;html=1;rounded=0;entryX=0;entryY=0.5;entryDx=0;entryDy=0;" edge="1" parent="1" target="MwhxylCimsrul33ufEP8-16">
          <mxGeometry width="50" height="50" relative="1" as="geometry">
            <mxPoint x="156.2104693957226" y="267.95015514744955" as="sourcePoint" />
            <mxPoint x="570" y="260" as="targetPoint" />
          </mxGeometry>
        </mxCell>
        <mxCell id="JIg0ScVijWEeHpX40dQg-6" value="" style="endArrow=none;html=1;rounded=0;entryX=0.5;entryY=1;entryDx=0;entryDy=0;exitX=0;exitY=0;exitDx=0;exitDy=0;" edge="1" parent="1" target="MwhxylCimsrul33ufEP8-13">
          <mxGeometry width="50" height="50" relative="1" as="geometry">
            <mxPoint x="503.18019484660545" y="508.7867965644035" as="sourcePoint" />
            <mxPoint x="570" y="360" as="targetPoint" />
          </mxGeometry>
        </mxCell>
        <mxCell id="JIg0ScVijWEeHpX40dQg-7" value="" style="endArrow=none;html=1;rounded=0;exitX=0.622;exitY=0.037;exitDx=0;exitDy=0;entryX=0.5;entryY=1;entryDx=0;entryDy=0;exitPerimeter=0;" edge="1" parent="1" target="MwhxylCimsrul33ufEP8-15">
          <mxGeometry width="50" height="50" relative="1" as="geometry">
            <mxPoint x="545.98" y="502.22" as="sourcePoint" />
            <mxPoint x="570" y="360" as="targetPoint" />
          </mxGeometry>
        </mxCell>
        <mxCell id="JIg0ScVijWEeHpX40dQg-8" value="" style="endArrow=none;html=1;rounded=0;exitX=1;exitY=0.5;exitDx=0;exitDy=0;entryX=0;entryY=0.5;entryDx=0;entryDy=0;" edge="1" parent="1" source="MwhxylCimsrul33ufEP8-12">
          <mxGeometry width="50" height="50" relative="1" as="geometry">
            <mxPoint x="520" y="410" as="sourcePoint" />
            <mxPoint x="850" y="320" as="targetPoint" />
          </mxGeometry>
        </mxCell>
        <mxCell id="JIg0ScVijWEeHpX40dQg-9" value="" style="endArrow=none;html=1;rounded=0;entryX=0;entryY=0.5;entryDx=0;entryDy=0;exitX=1;exitY=0.5;exitDx=0;exitDy=0;" edge="1" parent="1" source="MwhxylCimsrul33ufEP8-10">
          <mxGeometry width="50" height="50" relative="1" as="geometry">
            <mxPoint x="520" y="410" as="sourcePoint" />
            <mxPoint x="810" y="200" as="targetPoint" />
          </mxGeometry>
        </mxCell>
        <mxCell id="JIg0ScVijWEeHpX40dQg-10" value="" style="endArrow=none;html=1;rounded=0;exitX=0.5;exitY=1;exitDx=0;exitDy=0;" edge="1" parent="1" source="MwhxylCimsrul33ufEP8-11">
          <mxGeometry width="50" height="50" relative="1" as="geometry">
            <mxPoint x="520" y="210" as="sourcePoint" />
            <mxPoint x="530" y="500" as="targetPoint" />
          </mxGeometry>
        </mxCell>
        <mxCell id="JIg0ScVijWEeHpX40dQg-11" value="" style="endArrow=none;html=1;rounded=0;exitX=1;exitY=0.5;exitDx=0;exitDy=0;" edge="1" parent="1" source="MwhxylCimsrul33ufEP8-5">
          <mxGeometry width="50" height="50" relative="1" as="geometry">
            <mxPoint x="520" y="210" as="sourcePoint" />
            <mxPoint x="810.3336125087058" y="203.64623571357504" as="targetPoint" />
          </mxGeometry>
        </mxCell>
        <mxCell id="JIg0ScVijWEeHpX40dQg-12" value="" style="endArrow=none;html=1;rounded=0;entryX=0.5;entryY=1;entryDx=0;entryDy=0;exitX=0;exitY=0.5;exitDx=0;exitDy=0;" edge="1" parent="1" source="MwhxylCimsrul33ufEP8-5">
          <mxGeometry width="50" height="50" relative="1" as="geometry">
            <mxPoint x="520" y="210" as="sourcePoint" />
            <mxPoint x="420" y="110" as="targetPoint" />
          </mxGeometry>
        </mxCell>
        <mxCell id="JIg0ScVijWEeHpX40dQg-13" value="" style="endArrow=none;html=1;rounded=0;entryX=0;entryY=1;entryDx=0;entryDy=0;exitX=0.5;exitY=0;exitDx=0;exitDy=0;" edge="1" parent="1" source="MwhxylCimsrul33ufEP8-5">
          <mxGeometry width="50" height="50" relative="1" as="geometry">
            <mxPoint x="520" y="210" as="sourcePoint" />
            <mxPoint x="643.1801948466054" y="101.21320343559648" as="targetPoint" />
          </mxGeometry>
        </mxCell>
        <mxCell id="JIg0ScVijWEeHpX40dQg-14" value="bike&lt;br&gt;parking" style="ellipse;whiteSpace=wrap;html=1;rounded=0;shadow=1;comic=0;labelBackgroundColor=none;strokeWidth=1;fontFamily=Verdana;fontSize=12;align=center;" vertex="1" parent="1">
          <mxGeometry x="300" y="310" width="90" height="60" as="geometry" />
        </mxCell>
        <mxCell id="JIg0ScVijWEeHpX40dQg-15" value="" style="endArrow=none;html=1;rounded=0;exitX=0.978;exitY=0.737;exitDx=0;exitDy=0;exitPerimeter=0;entryX=0;entryY=0.5;entryDx=0;entryDy=0;" edge="1" parent="1" target="JIg0ScVijWEeHpX40dQg-14">
          <mxGeometry width="50" height="50" relative="1" as="geometry">
            <mxPoint x="158.01999999999998" y="294.2199999999999" as="sourcePoint" />
            <mxPoint x="570" y="250" as="targetPoint" />
          </mxGeometry>
        </mxCell>
        <mxCell id="JIg0ScVijWEeHpX40dQg-17" value="car&lt;br&gt;parking" style="ellipse;whiteSpace=wrap;html=1;rounded=0;shadow=1;comic=0;labelBackgroundColor=none;strokeWidth=1;fontFamily=Verdana;fontSize=12;align=center;" vertex="1" parent="1">
          <mxGeometry x="590" y="395" width="90" height="60" as="geometry" />
        </mxCell>
        <mxCell id="JIg0ScVijWEeHpX40dQg-20" value="" style="endArrow=none;html=1;rounded=0;entryX=0.5;entryY=1;entryDx=0;entryDy=0;exitX=1;exitY=0;exitDx=0;exitDy=0;" edge="1" parent="1" target="JIg0ScVijWEeHpX40dQg-17">
          <mxGeometry width="50" height="50" relative="1" as="geometry">
            <mxPoint x="566.8198051533948" y="508.7867965644035" as="sourcePoint" />
            <mxPoint x="570" y="350" as="targetPoint" />
          </mxGeometry>
        </mxCell>
        <mxCell id="JIg0ScVijWEeHpX40dQg-24" value="&lt;font style=&quot;font-size: 24px&quot;&gt;Building spaces&lt;/font&gt;" style="text;html=1;align=center;verticalAlign=middle;resizable=0;points=[];autosize=1;strokeColor=none;fillColor=none;" vertex="1" parent="1">
          <mxGeometry x="770" y="520" width="180" height="20" as="geometry" />
        </mxCell>
        <mxCell id="JIg0ScVijWEeHpX40dQg-25" value="" style="endArrow=classic;html=1;rounded=0;fontSize=24;entryX=0.976;entryY=0.685;entryDx=0;entryDy=0;entryPerimeter=0;exitX=0.486;exitY=-0.106;exitDx=0;exitDy=0;exitPerimeter=0;" edge="1" parent="1" source="JIg0ScVijWEeHpX40dQg-24" target="JIg0ScVijWEeHpX40dQg-22">
          <mxGeometry width="50" height="50" relative="1" as="geometry">
            <mxPoint x="850" y="500" as="sourcePoint" />
            <mxPoint x="900" y="450" as="targetPoint" />
          </mxGeometry>
        </mxCell>
        <mxCell id="JIg0ScVijWEeHpX40dQg-28" value="&lt;font style=&quot;font-size: 14px&quot;&gt;Main cycle path&lt;/font&gt;" style="shape=trapezoid;perimeter=trapezoidPerimeter;whiteSpace=wrap;html=1;fixedSize=1;fontSize=24;" vertex="1" parent="1">
          <mxGeometry x="60" y="250" width="120" height="60" as="geometry" />
        </mxCell>
        <mxCell id="JIg0ScVijWEeHpX40dQg-29" value="&lt;font style=&quot;font-size: 14px&quot;&gt;Main road&lt;/font&gt;" style="shape=trapezoid;perimeter=trapezoidPerimeter;whiteSpace=wrap;html=1;fixedSize=1;fontSize=24;" vertex="1" parent="1">
          <mxGeometry x="480" y="500" width="120" height="60" as="geometry" />
        </mxCell>
        <mxCell id="JIg0ScVijWEeHpX40dQg-30" value="&lt;font style=&quot;font-size: 14px&quot;&gt;Gym&lt;/font&gt;" style="shape=trapezoid;perimeter=trapezoidPerimeter;whiteSpace=wrap;html=1;fixedSize=1;fontSize=24;" vertex="1" parent="1">
          <mxGeometry x="840" y="280" width="120" height="60" as="geometry" />
        </mxCell>
        <mxCell id="JIg0ScVijWEeHpX40dQg-31" value="&lt;font style=&quot;font-size: 14px&quot;&gt;Garden&lt;/font&gt;" style="shape=trapezoid;perimeter=trapezoidPerimeter;whiteSpace=wrap;html=1;fixedSize=1;fontSize=24;" vertex="1" parent="1">
          <mxGeometry x="800" y="150" width="120" height="60" as="geometry" />
        </mxCell>
        <mxCell id="JIg0ScVijWEeHpX40dQg-32" value="&lt;font style=&quot;font-size: 14px&quot;&gt;Restaurant&lt;/font&gt;" style="shape=trapezoid;perimeter=trapezoidPerimeter;whiteSpace=wrap;html=1;fixedSize=1;fontSize=24;" vertex="1" parent="1">
          <mxGeometry x="630" y="50" width="120" height="60" as="geometry" />
        </mxCell>
        <mxCell id="JIg0ScVijWEeHpX40dQg-33" value="&lt;font style=&quot;font-size: 14px&quot;&gt;Football field&lt;/font&gt;" style="shape=trapezoid;perimeter=trapezoidPerimeter;whiteSpace=wrap;html=1;fixedSize=1;fontSize=24;" vertex="1" parent="1">
          <mxGeometry x="360" y="50" width="120" height="60" as="geometry" />
        </mxCell>
        <mxCell id="JIg0ScVijWEeHpX40dQg-34" value="&lt;font style=&quot;font-size: 14px&quot;&gt;External&lt;br&gt;context&lt;br&gt;&lt;/font&gt;" style="shape=trapezoid;perimeter=trapezoidPerimeter;whiteSpace=wrap;html=1;fixedSize=1;fontSize=24;" vertex="1" parent="1">
          <mxGeometry x="80" y="430" width="120" height="60" as="geometry" />
        </mxCell>
        <mxCell id="JIg0ScVijWEeHpX40dQg-35" value="Building&lt;br&gt;spaces" style="ellipse;whiteSpace=wrap;html=1;rounded=0;shadow=1;comic=0;labelBackgroundColor=none;strokeWidth=1;fontFamily=Verdana;fontSize=12;align=center;" vertex="1" parent="1">
          <mxGeometry x="95" y="500" width="90" height="60" as="geometry" />
        </mxCell>
      </root>
    </mxGraphModel>
  </diagram>
</mxfile>
